<mxfile host="app.diagrams.net" agent="Mozilla/5.0 (Windows NT 10.0; Win64; x64) AppleWebKit/537.36 (KHTML, like Gecko) Chrome/138.0.0.0 Safari/537.36 Edg/138.0.0.0" version="28.0.7">
  <diagram name="第 1 页" id="Y2CC0T6nUd637CifS6lb">
    <mxGraphModel dx="1176" dy="674" grid="1" gridSize="10" guides="1" tooltips="1" connect="1" arrows="1" fold="1" page="1" pageScale="1" pageWidth="827" pageHeight="1169" math="0" shadow="0">
      <root>
        <mxCell id="0" />
        <mxCell id="1" parent="0" />
        <mxCell id="chLSMoq36UjXYkvtAun--1" value="" style="rounded=1;whiteSpace=wrap;html=1;" vertex="1" parent="1">
          <mxGeometry x="170" y="350" width="490" height="430" as="geometry" />
        </mxCell>
        <mxCell id="chLSMoq36UjXYkvtAun--2" value="" style="endArrow=none;dashed=1;html=1;rounded=0;exitX=0;exitY=0.326;exitDx=0;exitDy=0;entryX=1;entryY=0.324;entryDx=0;entryDy=0;entryPerimeter=0;exitPerimeter=0;" edge="1" parent="1" source="chLSMoq36UjXYkvtAun--1" target="chLSMoq36UjXYkvtAun--1">
          <mxGeometry width="50" height="50" relative="1" as="geometry">
            <mxPoint x="167.5400000000002" y="478.72" as="sourcePoint" />
            <mxPoint x="896.0800000000002" y="479.96000000000004" as="targetPoint" />
          </mxGeometry>
        </mxCell>
        <mxCell id="chLSMoq36UjXYkvtAun--3" value="&lt;b&gt;Control Plane&lt;/b&gt;" style="text;html=1;align=center;verticalAlign=middle;whiteSpace=wrap;rounded=0;" vertex="1" parent="1">
          <mxGeometry x="179" y="440" width="110" height="30" as="geometry" />
        </mxCell>
        <mxCell id="chLSMoq36UjXYkvtAun--4" value="&lt;b&gt;Data Plane&lt;/b&gt;" style="text;html=1;align=center;verticalAlign=middle;whiteSpace=wrap;rounded=0;" vertex="1" parent="1">
          <mxGeometry x="179" y="495" width="110" height="30" as="geometry" />
        </mxCell>
        <mxCell id="chLSMoq36UjXYkvtAun--5" value="" style="rounded=1;whiteSpace=wrap;html=1;" vertex="1" parent="1">
          <mxGeometry x="289" y="370" width="210" height="110" as="geometry" />
        </mxCell>
        <mxCell id="chLSMoq36UjXYkvtAun--6" value="Policy Decision Point&lt;div&gt;(PDP)&lt;/div&gt;" style="text;html=1;align=center;verticalAlign=middle;whiteSpace=wrap;rounded=0;" vertex="1" parent="1">
          <mxGeometry x="289" y="400" width="70" height="50" as="geometry" />
        </mxCell>
        <mxCell id="chLSMoq36UjXYkvtAun--7" style="edgeStyle=orthogonalEdgeStyle;rounded=0;orthogonalLoop=1;jettySize=auto;html=1;strokeColor=#FF0000;" edge="1" parent="1" source="chLSMoq36UjXYkvtAun--8" target="chLSMoq36UjXYkvtAun--13">
          <mxGeometry relative="1" as="geometry" />
        </mxCell>
        <mxCell id="chLSMoq36UjXYkvtAun--28" style="edgeStyle=orthogonalEdgeStyle;rounded=0;orthogonalLoop=1;jettySize=auto;html=1;" edge="1" parent="1" source="chLSMoq36UjXYkvtAun--8">
          <mxGeometry relative="1" as="geometry">
            <mxPoint x="393.5" y="670" as="targetPoint" />
          </mxGeometry>
        </mxCell>
        <mxCell id="chLSMoq36UjXYkvtAun--8" value="Policy&lt;div&gt;Enforcement&amp;nbsp;&lt;/div&gt;&lt;div&gt;Point&lt;div&gt;(PEP)&lt;/div&gt;&lt;/div&gt;" style="rounded=1;whiteSpace=wrap;html=1;fillColor=#f8cecc;strokeColor=#b85450;" vertex="1" parent="1">
          <mxGeometry x="318.5" y="550" width="150" height="80" as="geometry" />
        </mxCell>
        <mxCell id="chLSMoq36UjXYkvtAun--9" value="Policy Engine" style="rounded=1;whiteSpace=wrap;html=1;" vertex="1" parent="1">
          <mxGeometry x="369" y="380" width="80" height="30" as="geometry" />
        </mxCell>
        <mxCell id="chLSMoq36UjXYkvtAun--10" value="Policy Administrator" style="rounded=1;whiteSpace=wrap;html=1;" vertex="1" parent="1">
          <mxGeometry x="369" y="440" width="80" height="30" as="geometry" />
        </mxCell>
        <mxCell id="chLSMoq36UjXYkvtAun--11" value="" style="endArrow=classic;html=1;rounded=0;exitX=0.33;exitY=0.021;exitDx=0;exitDy=0;exitPerimeter=0;" edge="1" parent="1" source="chLSMoq36UjXYkvtAun--8">
          <mxGeometry width="50" height="50" relative="1" as="geometry">
            <mxPoint x="319" y="530" as="sourcePoint" />
            <mxPoint x="369" y="480" as="targetPoint" />
          </mxGeometry>
        </mxCell>
        <mxCell id="chLSMoq36UjXYkvtAun--12" value="" style="endArrow=classic;html=1;rounded=0;entryX=0.669;entryY=0.029;entryDx=0;entryDy=0;entryPerimeter=0;" edge="1" parent="1" target="chLSMoq36UjXYkvtAun--8">
          <mxGeometry width="50" height="50" relative="1" as="geometry">
            <mxPoint x="419" y="480" as="sourcePoint" />
            <mxPoint x="469" y="430" as="targetPoint" />
          </mxGeometry>
        </mxCell>
        <mxCell id="chLSMoq36UjXYkvtAun--13" value="Enterprise&lt;div&gt;Resource&lt;/div&gt;" style="rounded=1;whiteSpace=wrap;html=1;" vertex="1" parent="1">
          <mxGeometry x="548.5" y="565" width="90" height="50" as="geometry" />
        </mxCell>
        <mxCell id="chLSMoq36UjXYkvtAun--14" value="Forge Info" style="text;html=1;align=center;verticalAlign=middle;whiteSpace=wrap;rounded=0;" vertex="1" parent="1">
          <mxGeometry x="479.5" y="555.09" width="60" height="35" as="geometry" />
        </mxCell>
        <mxCell id="chLSMoq36UjXYkvtAun--16" value="" style="endArrow=classic;startArrow=classic;html=1;rounded=0;entryX=0.5;entryY=1;entryDx=0;entryDy=0;exitX=0.5;exitY=0;exitDx=0;exitDy=0;" edge="1" parent="1" source="chLSMoq36UjXYkvtAun--10" target="chLSMoq36UjXYkvtAun--9">
          <mxGeometry width="50" height="50" relative="1" as="geometry">
            <mxPoint x="569" y="550" as="sourcePoint" />
            <mxPoint x="619" y="500" as="targetPoint" />
          </mxGeometry>
        </mxCell>
        <mxCell id="chLSMoq36UjXYkvtAun--25" style="edgeStyle=orthogonalEdgeStyle;rounded=0;orthogonalLoop=1;jettySize=auto;html=1;entryX=0;entryY=0.5;entryDx=0;entryDy=0;strokeColor=#FF3333;" edge="1" parent="1" source="chLSMoq36UjXYkvtAun--17" target="chLSMoq36UjXYkvtAun--8">
          <mxGeometry relative="1" as="geometry" />
        </mxCell>
        <mxCell id="chLSMoq36UjXYkvtAun--17" value="" style="shape=image;verticalLabelPosition=bottom;labelBackgroundColor=default;verticalAlign=top;aspect=fixed;imageAspect=0;editableCssRules=.*;image=data:image/svg+xml,PHN2ZyB4bWxuczp4bGluaz0iaHR0cDovL3d3dy53My5vcmcvMTk5OS94bGluayIgeG1sbnM9Imh0dHA6Ly93d3cudzMub3JnLzIwMDAvc3ZnIiBoZWlnaHQ9IjE5OS45ODMzMzQ1NDEzMjA4IiB3aWR0aD0iMTY5LjEzNDE0MDAxNDY0ODQ0IiB2ZXJzaW9uPSIxLjEiIHZpZXdCb3g9Ijc5LjAxNzc4NDExODY1MjM0IDAuMDg1MzMwOTYzMTM0NzY1NjIgODY1Ljk2Njc5Njg3NSAxMDIzLjkxNDY3Mjg1MTU2MjUiIGNsYXNzPSJpY29uIj48cGF0aCBmaWxsPSIjQjYyNzI3IiBkPSJNOTM5Ljg2MTMzMyA3NzIuOTkyYTY2My4zMzg2NjcgNjYzLjMzODY2NyAwIDAgMC0xNy45Mi05My4xODQgMjcyLjQyNjY2NyAyNzIuNDI2NjY3IDAgMCAwLTQwLjE0OTMzMy04OC4zMmMtMTguMzA0LTI1Ljk0MTMzMy00MC4yNzczMzMtNDUuNzM4NjY3LTY2LjA5MDY2Ny01OS4zMDY2NjdsNTAuNDc0NjY3LTEzOC40OTZoLTEzMS43NTQ2NjdhMjQwLjY0IDI0MC42NCAwIDAgMCAxMi4yODgtOTguNDc0NjY2YzE1LjMxNzMzMy0zLjExNDY2NyAyOS4wMTMzMzMtNi40IDQxLjM4NjY2Ny05LjgxMzMzNCA0Mi4xMTItMTEuNDc3MzMzIDY3LjItMjQuNDkwNjY3IDc1LjIyMTMzMy0zOC45NTQ2NjZhMjAuNzM2IDIwLjczNiAwIDAgMCAyLjc3MzMzNC0xMC4zMjUzMzRjMC0yMy4zODEzMzMtNDIuOTY1MzMzLTQzLjY5MDY2Ny0xMjkuMTUyLTYwLjk3MDY2NmE1MDMuNDY2NjY3IDUwMy40NjY2NjcgMCAwIDAtMzEuNzAxMzM0LTgyLjM0NjY2N2MtMTQuMDgtMjkuNTI1MzMzLTI4LjU4NjY2Ny01Mi45MDY2NjctNDMuMzkyLTcwLjEwMTMzMy0xMy4wOTg2NjctMTUuMDE4NjY3LTI4LjgtMjIuNjEzMzMzLTQ2Ljc2MjY2Ni0yMi42MTMzMzQtMTIuMzMwNjY3IDAtMjkuNTI1MzMzIDYuMzE0NjY3LTUxLjYyNjY2NyAxOS4wMjkzMzQtMjIuMDU4NjY3IDEyLjY3Mi0zOS4zODEzMzMgMTguOTg2NjY3LTUxLjU0MTMzMyAxOC45ODY2NjYtMTIuMjAyNjY3IDAtMjkuNTI1MzMzLTYuMzE0NjY3LTUxLjYyNjY2Ny0xOC45ODY2NjZDNDM4LjI3MiA2LjQgNDIxLjA3NzMzMyAwLjA4NTMzMyA0MDguNzQ2NjY3IDAuMDg1MzMzYy0xOC4wMDUzMzMgMC0zMy42MjEzMzMgNy41OTQ2NjctNDYuNzIgMjIuODI2NjY3LTE0Ljc2MjY2NyAxNy4xOTQ2NjctMjkuMjY5MzMzIDQwLjUzMzMzMy00My4yNjQgNzAuMDU4NjY3LTE0LjA4IDI5LjQ4MjY2Ny0yNC43MDQgNTcuMDAyNjY3LTMxLjcwMTMzNCA4Mi4zNDY2NjYtODYuMDU4NjY3IDE3LjIzNzMzMy0xMjkuMTUyIDM3LjU0NjY2Ny0xMjkuMTUyIDYxLjAxMzMzNCAwIDMuNzk3MzMzIDEuMTA5MzMzIDcuMzgxMzMzIDMuMiAxMS4wMDggOC40OTA2NjcgMTQuMjkzMzMzIDM0LjA5MDY2NyAyNy4xNzg2NjcgNzYuOCAzOC43ODQgMTEuNzc2IDMuMiAyNC44NzQ2NjcgNi4yNzIgMzkuMzM4NjY3IDkuMzAxMzMzLTAuODUzMzMzIDguMTkyLTEuMjggMTQuODA1MzMzLTEuMjggMTkuNjY5MzMzIDAgMjYuMzI1MzMzIDQuNDggNTIuNDggMTMuNjEwNjY3IDc4LjgwNTMzNEgxNTcuNjEwNjY3bDU1LjM4MTMzMyAxMzUuNDY2NjY2YTE3NC41MDY2NjcgMTc0LjUwNjY2NyAwIDAgMC01Ny42IDQ1Ljc4MTMzNCAyNTIuNTQ0IDI1Mi41NDQgMCAwIDAtMzkuMDgyNjY3IDYzLjY1ODY2NiA0MTQuNzIgNDE0LjcyIDAgMCAwLTIyLjk5NzMzMyA3NS45NDY2NjdjLTUuOTczMzMzIDI4LjE2LTkuODEzMzMzIDUzLjgwMjY2Ny0xMS42MDUzMzMgNzcuMzEyYTk0Ni4zNDY2NjcgOTQ2LjM0NjY2NyAwIDAgMC0yLjY4OCA3Mi41NzZjMCA0OS41Nzg2NjcgMTUuMDE4NjY3IDg4LjQ5MDY2NyA0NC44ODUzMzMgMTE2LjkwNjY2NyAyOS44NjY2NjcgMjguMjQ1MzMzIDY5LjU4OTMzMyA0Mi40NTMzMzMgMTE5LjI5NiA0Mi40NTMzMzNoNTM3LjZjNDkuNjIxMzMzIDAgODkuMzg2NjY3LTE0LjA4IDExOS4yOTYtNDIuNDk2IDI5Ljg2NjY2Ny0yOC4xNiA0NC44ODUzMzMtNjcuMTU3MzMzIDQ0Ljg4NTMzMy0xMTYuODY0IDAuMDg1MzMzLTMxLjc4NjY2Ny0xLjQ5MzMzMy02Mi4yOTMzMzMtNS4xMi05MS42NDh6TTMzOC4xMzMzMzMgMjMwLjMxNDY2N2wxMC40MTA2NjctMzguMDU4NjY3YzUuODg4LTIxLjQxODY2NyAxNS4xODkzMzMtNDUuNDgyNjY3IDI3LjczMzMzMy03MS44MDggMTEuMzQ5MzMzLTIzLjc2NTMzMyAyMi41NzA2NjctNDIuMzY4IDMzLjQ1MDY2Ny01NS4yNTMzMzMgMy41ODQgMS4zNjUzMzMgOS42ODUzMzMgNC4xODEzMzMgMTguNjAyNjY3IDkuMzAxMzMzIDMyLjY4MjY2NyAxOC43NzMzMzMgNTkuMzA2NjY3IDI3LjQ3NzMzMyA4My40NTYgMjcuNDc3MzMzIDI0LjE5MiAwIDUwLjY4OC04LjcwNCA4My40OTg2NjYtMjcuNDc3MzMzIDguOTYtNS4xMiAxNC45NzYtNy45MzYgMTguNjAyNjY3LTkuMzAxMzMzIDEwLjg4IDEyLjg4NTMzMyAyMi4wNTg2NjcgMzEuNDg4IDMzLjQ1MDY2NyA1NS4yNTMzMzMgMTIuNTAxMzMzIDI2LjExMiAyMS44MDI2NjcgNTAuMjE4NjY3IDI3LjgxODY2NiA3MS44MDhsMTAuNDk2IDM3Ljk3MzMzMyAyOS41NjggNS44ODhhMTA2OC42MjkzMzMgMTA2OC42MjkzMzMgMCAwIDEtNDA3LjA0IDBsMjkuOTUyLTUuODAyNjY2eiBtMzA3LjU0MTMzNCAyMjcuNDEzMzMzbC01MS40MTMzMzQgNDQuMDMyYTEyNi41NDkzMzMgMTI2LjU0OTMzMyAwIDAgMS0xNjQuNjUwNjY2IDBsLTUxLjM3MDY2Ny00My45ODkzMzNoMC44MTA2NjdsLTE0LjIwOC00MS4wODhjMC4yMTMzMzMgMC4yOTg2NjcgMC4yOTg2NjcgMC41OTczMzMgMC41MTIgMC44MTA2NjYgMC45ODEzMzMgMS43MDY2NjcgMi43NzMzMzMgNC40OCA1LjU0NjY2NiA4LjY2MTMzNGEyOC41MDEzMzMgMjguNTAxMzMzIDAgMCAwIDcuNDI0IDguMzJjMi4yMTg2NjcgMS40MDggNS4yMDUzMzMgMy40MTMzMzMgOC43MDQgNS44MDI2NjZhMzEuMDYxMzMzIDMxLjA2MTMzMyAwIDAgMCAxMC42NjY2NjcgNC45MDY2NjdjMy44NCAwLjc2OCA3LjkzNiAxLjcwNjY2NyAxMi42MjkzMzMgMi40NzQ2NjcgNC42OTMzMzMgMC44MTA2NjcgOS42ODUzMzMgMS4yOCAxNS4wMTg2NjcgMS4yOCAxNC43NjI2NjcgMCAyNi44OC0yLjU2IDM2LjM1Mi03LjU1MiA5LjUxNDY2Ny01LjIwNTMzMyAxNi4xMjgtMTEuMzA2NjY3IDIwLjA5Ni0xOC41MTczMzQgMy45MjUzMzMtNy4wODI2NjcgNi45MTItMTQuMjA4IDguOTE3MzMzLTIxLjIwNTMzMyAyLjEzMzMzMy02Ljk5NzMzMyA0LjM5NDY2Ny0xMy4wOTg2NjcgNy4wODI2NjctMTguMDkwNjY3IDIuNzMwNjY3LTUuMjA1MzMzIDYuMjI5MzMzLTcuNTk0NjY3IDEwLjc5NDY2Ny03LjU5NDY2Nmg3LjQyNGM0LjQ4IDAgOC4xOTIgMi42MDI2NjcgMTAuNjY2NjY2IDcuNTk0NjY2IDIuNzMwNjY3IDUuMjA1MzMzIDUuMDM0NjY3IDExLjA5MzMzMyA3LjEyNTMzNCAxOC4wOTA2NjcgMi4wOTA2NjcgNi45OTczMzMgNC45OTIgMTQuMDggOC44NzQ2NjYgMjEuMjA1MzMzIDMuOTI1MzMzIDcuMTI1MzMzIDEwLjYyNCAxMy4zMTIgMjAuMDk2IDE4LjUxNzMzNCA5LjUxNDY2NyA1LjE2MjY2NyAyMS41MDQgNy41OTQ2NjcgMzYuMzk0NjY3IDcuNTk0NjY2IDUuMjkwNjY3IDAgMTAuNDEwNjY3LTAuNDI2NjY3IDE1LjAxODY2Ny0xLjI4IDQuNjkzMzMzLTAuODUzMzMzIDguODc0NjY3LTEuNzA2NjY3IDEyLjQ1ODY2Ni0yLjU2YTI4Ljc1NzMzMyAyOC43NTczMzMgMCAwIDAgMTAuNzA5MzM0LTQuODY0YzMuNDk4NjY3LTIuNTE3MzMzIDYuMzE0NjY3LTQuMzk0NjY3IDguNzA0LTUuODAyNjY2YTI3LjIyMTMzMyAyNy4yMjEzMzMgMCAwIDAgNy4zODEzMzMtOC4zMmw1LjIwNTMzMy03Ljk3ODY2Ny0xMy4zOTczMzMgMzkuNTk0NjY3aDAuNDI2NjY3eiBtLTE5LjAyOTMzNCAxMDAuNTIyNjY3TDUxMiA4NjIuMDM3MzMzIDM5Ny4wMTMzMzMgNTU3LjY1MzMzM2wxLjgzNDY2NyAxLjU3ODY2N2ExNzQuNjc3MzMzIDE3NC42NzczMzMgMCAwIDAgMjI2LjkwMTMzMy0wLjIxMzMzM2wwLjg5Ni0wLjc2OHogbTEuMDI0LTIyMi40NjRjLTI4LjcxNDY2NyAwLTYyLjk3NiAzLjkyNTMzMy0xMDIuNzg0IDExLjYwNTMzMy0yLjc3MzMzMyAwLjgxMDY2Ny03LjA4MjY2NyAxLjI4LTEyLjg4NTMzMyAxLjI4LTUuNzE3MzMzIDAtMTAuMTEyLTAuMzg0LTEyLjg4NTMzMy0xLjI4LTM5LjY4LTcuODA4LTczLjk4NC0xMS42MDUzMzMtMTAyLjc4NC0xMS42MDUzMzMtMjguMzczMzMzIDAtNDYuNjc3MzMzIDEuMTA5MzMzLTU0Ljc4NCAzLjJhMTYzLjQ5ODY2NyAxNjMuNDk4NjY3IDAgMCAxLTEuNzkyLTIzLjk3ODY2N2MwLTAuODEwNjY3IDAtMy40MTMzMzMgMC41MTItOC4xMDY2NjcgNTAuOTg2NjY3IDcuODA4IDEwMi44MjY2NjcgMTIuMjAyNjY3IDE1NS4zMDY2NjYgMTIuODg1MzM0YTExNDkuNDQgMTE0OS40NCAwIDAgMCAxODcuNzMzMzM0LTEzLjAxMzMzNGMwLjY0IDEwLjgzNzMzMyAwLjEyOCAyMS41NDY2NjctMS4zNjUzMzQgMzIuMTI4LTguNDA1MzMzLTIuMTMzMzMzLTI2LjQ1MzMzMy0zLjExNDY2Ny01NC4yNzItMy4xMTQ2NjZ6TTI0My4yIDk1OS43MDEzMzNjLTMzLjAyNCAwLTU3LjYtOC4xMDY2NjctNzUuMzA2NjY3LTI0Ljg3NDY2NmE3Mi40MDUzMzMgNzIuNDA1MzMzIDAgMCAxLTE4LjAwNTMzMy0yNy4wMDggMTIyLjE5NzMzMyAxMjIuMTk3MzMzIDAgMCAxLTYuOTk3MzMzLTQzLjM5MmMwLTIzLjE2OCAwLjkzODY2Ny00NS45NTIgMi41MTczMzMtNjcuNjY5MzM0IDEuNTc4NjY3LTIwLjQ4IDUuMTItNDMuNjkwNjY3IDEwLjQxMDY2Ny02OC44NjQgNS4yMDUzMzMtMjQuMzIgMTEuNjkwNjY3LTQ1Ljk5NDY2NyAxOS40OTg2NjYtNjQuNDY5MzMzIDYuODY5MzMzLTE2LjUxMiAxNi43NjgtMzIuNTEyIDI5LjI2OTMzNC00Ny40ODggMTAuNzk0NjY3LTEyLjkyOCAyMi42OTg2NjctMjIuNTI4IDM2LjQ4LTI5LjIyNjY2N2w1My43Ni0yNi4yODI2NjYtMjIuNjU2LTU1LjQ2NjY2Ny0xOS4yODUzMzQtNDcuMjc0NjY3aDM4LjEwMTMzNGw1LjE2MjY2NiAxMy43ODEzMzRMNDc3Ljg2NjY2NyA5NTIuNjE4NjY3bDIuNjg4IDcuMDgyNjY2SDI0My4xNTczMzN6IG02MzAuOTEyLTUxLjc1NDY2NmE3MS4xNjggNzEuMTY4IDAgMCAxLTE3Ljc5MiAyNi43OTQ2NjZoLTAuMTI4Yy0xNy43MDY2NjcgMTYuNzY4LTQyLjI0IDI0Ljg3NDY2Ny03NS4yNjQgMjQuODc0NjY3aC0yMzcuNDRsMi42ODgtNy4wODI2NjcgMTgxLjU0NjY2Ny00ODAuOTgxMzMzIDUuMzMzMzMzLTEzLjg2NjY2N2g0MS42ODUzMzNsLTE5LjIgNTIuNTY1MzM0LTE5LjIgNTIuNTY1MzMzIDQ5LjQ5MzMzNCAyNi4wMjY2NjdjMTYuNzY4IDguNzg5MzMzIDMwLjk3NiAyMS42NzQ2NjcgNDMuNDc3MzMzIDM5LjQ2NjY2NiAxMy43ODEzMzMgMTkuNzEyIDI0LjEwNjY2NyA0Mi40MTA2NjcgMzAuNzIgNjcuNjY5MzM0djAuMjEzMzMzYzcuNTUyIDI4Ljg4NTMzMyAxMy4wNTYgNTcuMTczMzMzIDE2LjE3MDY2NyA4NC4xODEzMzN2MC41OTczMzRjMy4yIDI1LjYgNC42OTMzMzMgNTIuOTkyIDQuNjkzMzMzIDgzLjY2OTMzMyAwLjIxMzMzMyAxNi42NC0yLjIxODY2NyAzMS4zMTczMzMtNi44MjY2NjcgNDMuMzA2NjY3eiIvPjwvc3ZnPg==;" vertex="1" parent="1">
          <mxGeometry x="179.5" y="555.09" width="59" height="69.82" as="geometry" />
        </mxCell>
        <mxCell id="chLSMoq36UjXYkvtAun--20" value="Compromise the PEP" style="text;html=1;align=center;verticalAlign=middle;whiteSpace=wrap;rounded=0;" vertex="1" parent="1">
          <mxGeometry x="249.5" y="604.82" width="60" height="30" as="geometry" />
        </mxCell>
        <mxCell id="chLSMoq36UjXYkvtAun--24" value="Attacker" style="text;html=1;align=center;verticalAlign=middle;whiteSpace=wrap;rounded=0;" vertex="1" parent="1">
          <mxGeometry x="179.5" y="624.9099999999999" width="60" height="30" as="geometry" />
        </mxCell>
        <mxCell id="chLSMoq36UjXYkvtAun--29" value="&lt;font style=&quot;color: rgb(255, 0, 0);&quot;&gt;PEP has been compromised&lt;/font&gt;" style="rounded=0;whiteSpace=wrap;html=1;fillColor=#f8cecc;strokeColor=#b85450;" vertex="1" parent="1">
          <mxGeometry x="334" y="670" width="120" height="40" as="geometry" />
        </mxCell>
        <mxCell id="chLSMoq36UjXYkvtAun--30" value="" style="verticalLabelPosition=bottom;verticalAlign=top;html=1;shape=mxgraph.basic.8_point_star;fillColor=#f8cecc;strokeColor=#b85450;" vertex="1" parent="1">
          <mxGeometry x="510" y="647.09" width="140" height="72.91" as="geometry" />
        </mxCell>
        <mxCell id="chLSMoq36UjXYkvtAun--32" value="" style="shape=singleArrow;direction=south;whiteSpace=wrap;html=1;rotation=0;fillColor=#f8cecc;strokeColor=#b85450;" vertex="1" parent="1">
          <mxGeometry x="570.5" y="622.8199999999999" width="19" height="32.09" as="geometry" />
        </mxCell>
        <mxCell id="chLSMoq36UjXYkvtAun--34" value="" style="text;html=1;align=center;verticalAlign=middle;whiteSpace=wrap;rounded=0;opacity=0;fillColor=none;strokeColor=#b85450;" vertex="1" parent="1">
          <mxGeometry x="410" y="750" width="124" height="30" as="geometry" />
        </mxCell>
        <mxCell id="chLSMoq36UjXYkvtAun--35" value="&lt;font style=&quot;color: rgb(255, 0, 0);&quot;&gt;data leakage&lt;/font&gt;&lt;div&gt;&lt;font style=&quot;color: rgb(255, 0, 0);&quot;&gt;under attack&lt;/font&gt;&lt;/div&gt;" style="rounded=0;whiteSpace=wrap;html=1;fillColor=#f8cecc;strokeColor=none;" vertex="1" parent="1">
          <mxGeometry x="542.25" y="670" width="75.5" height="23.55" as="geometry" />
        </mxCell>
      </root>
    </mxGraphModel>
  </diagram>
</mxfile>
